<svg width="706" height="454" viewBox="0 0 706 454" fill="none" xmlns="http://www.w3.org/2000/svg">
<path fill-rule="evenodd" clip-rule="evenodd" d="M569.536 452.446L591.458 450.883C653.719 441.334 701.564 389.276 702.149 326.038C702.663 270.458 666.518 222.834 615.597 204.856C614.776 94.7839 523.135 5.29264 409.381 4.23974C327.324 3.48023 255.947 48.9388 221.44 115.628C205.564 98.2715 182.466 87.2298 156.684 86.9912C108.295 86.5433 68.7101 124.276 68.2752 171.263C68.1616 183.536 70.7261 195.217 75.4259 205.791C31.8605 226.235 1.64577 269.372 1.18133 319.55C0.59601 382.788 47.4692 435.722 109.543 446.423L131.431 448.391L348.286 450.398L352.687 449.823L569.536 452.446Z" fill="#B721FF" fill-opacity="0.06"/>
<g clip-path="url(#clip0)">
<path d="M176.032 190.197C171.982 180.669 161.673 178.87 161.673 178.87C161.673 178.87 151.747 176.229 143.458 188.804C135.731 200.525 125.767 211.507 138.403 216.185L141.741 209.195L142.142 217.239C143.979 217.621 145.836 217.902 147.704 218.081C161.72 219.501 174.933 221.862 175.177 216.811C175.503 210.097 179.929 199.365 176.032 190.197Z" fill="#2F2E41"/>
<path d="M133.271 266.499L132.369 289.431C132.369 289.431 122.899 307.866 130.565 307.417C138.231 306.967 137.329 289.431 137.329 289.431L140.035 267.848L133.271 266.499Z" fill="#FFB8B8"/>
<path d="M185.129 262.452L187.835 285.384C187.835 285.384 195.952 297.525 189.639 301.571C183.325 305.618 183.325 287.183 183.325 287.183L176.561 263.801L185.129 262.452Z" fill="#FFB8B8"/>
<path d="M175.659 305.169L167.542 336.644C167.542 336.644 163.935 349.234 158.975 355.529L157.171 359.126L149.956 358.226L154.916 337.993L158.073 300.672L175.659 305.169Z" fill="#FFB8B8"/>
<path opacity="0.1" d="M175.659 305.169L167.542 336.644C167.542 336.644 163.935 349.234 158.975 355.529L157.171 359.126L149.956 358.226L154.916 337.993L158.073 300.672L175.659 305.169Z" fill="black"/>
<path d="M148.171 353.207L160.503 356.054L155.42 368.001C155.42 368.001 157.486 375.153 155.518 378.941C153.551 382.728 153.835 389.601 153.835 389.601L151.162 389.181C151.162 389.181 144.673 401.362 137.005 397.882C129.338 394.402 137.493 386.124 137.493 386.124C137.493 386.124 144.123 373.054 144.965 367.724C145.806 362.394 148.171 353.207 148.171 353.207Z" fill="#2F2E41"/>
<path opacity="0.1" d="M148.171 353.207L160.503 356.054L155.42 368.001C155.42 368.001 157.486 375.153 155.518 378.941C153.551 382.728 153.835 389.601 153.835 389.601L151.162 389.181C151.162 389.181 144.673 401.362 137.005 397.882C129.338 394.402 137.493 386.124 137.493 386.124C137.493 386.124 144.123 373.054 144.965 367.724C145.806 362.394 148.171 353.207 148.171 353.207Z" fill="black"/>
<path d="M137.78 298.424L144.544 332.147C144.544 332.147 142.29 348.784 144.995 359.126L147.701 369.018H156.72V332.597C156.72 332.597 157.171 302.92 155.818 300.672C154.465 298.424 137.78 298.424 137.78 298.424Z" fill="#FFB8B8"/>
<path d="M158.524 365.421L145.897 366.32L149.054 378.91C149.054 378.91 145.897 385.655 147.25 389.701C148.603 393.748 147.25 400.493 147.25 400.493H149.956C149.956 400.493 154.465 413.533 162.582 411.284C170.699 409.036 163.935 399.594 163.935 399.594C163.935 399.594 159.426 385.655 159.426 380.259C159.426 374.863 158.524 365.421 158.524 365.421Z" fill="#2F2E41"/>
<path d="M161.68 209.844C168.405 209.844 173.856 204.409 173.856 197.704C173.856 190.999 168.405 185.564 161.68 185.564C154.956 185.564 149.505 190.999 149.505 197.704C149.505 204.409 154.956 209.844 161.68 209.844Z" fill="#FFB8B8"/>
<path d="M153.338 202.425C153.338 202.425 154.24 217.713 151.534 218.612C148.828 219.512 165.513 218.612 165.513 218.612C165.513 218.612 163.258 209.17 165.513 206.472C167.768 203.774 153.338 202.425 153.338 202.425Z" fill="#FFB8B8"/>
<path d="M165.739 216.139C165.739 216.139 154.014 215.24 151.759 216.139C149.505 217.039 143.191 221.535 143.191 221.535L146.348 249.862L172.052 255.258L176.11 249.413L180.169 240.87L178.365 230.078L177.914 223.783L165.739 216.139Z" fill="#575A89"/>
<path d="M140.937 223.334C140.937 223.334 135.075 224.682 134.624 229.179C134.173 233.675 134.173 244.916 134.624 246.715C135.075 248.514 134.624 249.413 134.173 249.862C133.722 250.312 132.82 249.413 133.722 250.762C134.624 252.111 134.624 252.111 134.173 253.46C133.722 254.809 132.369 253.01 133.271 255.258C134.173 257.506 134.624 257.956 134.173 258.406C133.722 258.855 132.369 269.197 132.369 269.197L140.035 270.546L147.701 244.017L140.937 223.334Z" fill="#575A89"/>
<path d="M176.11 223.334C176.967 223.381 177.795 223.657 178.508 224.131C179.222 224.605 179.795 225.262 180.169 226.031C181.522 228.729 185.129 246.265 184.678 247.614C184.227 248.963 183.325 247.165 184.227 249.862C185.129 252.56 184.227 252.111 184.678 253.909C185.129 255.708 182.874 253.909 184.678 255.708C186.482 257.506 187.384 257.956 186.482 258.855C185.58 259.755 184.227 257.956 185.58 259.755C186.933 261.553 186.933 264.251 186.933 264.251L176.11 266.499L172.954 241.319L176.11 223.334Z" fill="#575A89"/>
<path d="M139.525 222.619L141.74 221.514C141.964 221.402 142.208 221.336 142.458 221.319C142.708 221.302 142.959 221.334 143.196 221.414C143.433 221.494 143.652 221.62 143.84 221.785C144.029 221.95 144.182 222.15 144.292 222.375L154.465 243.118L165.739 250.312L173.856 246.715C173.856 246.715 179.718 237.722 177.914 233.226C176.691 230.177 175.258 225.487 174.463 222.782C174.416 222.623 174.42 222.453 174.473 222.296C174.526 222.139 174.627 222.002 174.761 221.904C174.895 221.806 175.057 221.752 175.223 221.748C175.389 221.745 175.553 221.792 175.691 221.884L177.228 222.906C177.72 223.233 178.063 223.74 178.182 224.318L181.522 240.42L177.012 249.862V258.855L180.169 307.417C180.169 307.417 168.444 305.618 156.72 303.37C144.995 301.122 130.114 299.323 130.114 299.323C130.114 299.323 137.78 259.755 144.093 253.01C144.093 253.01 144.093 248.064 144.995 247.614C145.897 247.165 146.799 244.017 146.799 244.017L138.631 225.056C138.44 224.613 138.426 224.113 138.592 223.66C138.759 223.207 139.092 222.834 139.525 222.619V222.619Z" fill="#2F2E41"/>
<path d="M173.742 186.735L163.411 181.339L149.143 183.547L146.192 196.547L153.54 196.265L155.592 191.489V196.186L158.983 196.056L160.951 188.453L162.181 196.547L174.234 196.301L173.742 186.735Z" fill="#2F2E41"/>
<path d="M149.279 200.065C150.026 200.065 150.632 199.008 150.632 197.704C150.632 196.4 150.026 195.343 149.279 195.343C148.532 195.343 147.926 196.4 147.926 197.704C147.926 199.008 148.532 200.065 149.279 200.065Z" fill="#FFB8B8"/>
<path d="M511.698 143H207.218V298.709H511.698V143Z" fill="#3F3D56"/>
<path d="M337.745 228.778H274.617C274.523 228.778 274.43 228.76 274.343 228.724C274.256 228.688 274.177 228.636 274.111 228.57C274.045 228.503 273.992 228.425 273.956 228.338C273.92 228.252 273.902 228.159 273.902 228.066V202.887C273.902 202.794 273.92 202.701 273.956 202.614C273.992 202.528 274.045 202.449 274.111 202.383C274.177 202.317 274.256 202.264 274.343 202.229C274.43 202.193 274.523 202.174 274.617 202.174H337.745C337.839 202.174 337.932 202.193 338.018 202.229C338.105 202.264 338.184 202.317 338.25 202.383C338.317 202.449 338.37 202.528 338.405 202.614C338.441 202.701 338.46 202.794 338.46 202.887V228.066C338.46 228.159 338.441 228.252 338.405 228.338C338.37 228.425 338.317 228.503 338.25 228.57C338.184 228.636 338.105 228.688 338.018 228.724C337.932 228.76 337.839 228.778 337.745 228.778V228.778ZM275.331 227.353H337.03V203.6H275.331V227.353Z" fill="white"/>
<path d="M301.446 245.302H274.617C274.523 245.302 274.43 245.284 274.343 245.248C274.256 245.212 274.177 245.16 274.111 245.093C274.045 245.027 273.992 244.949 273.956 244.862C273.92 244.776 273.902 244.683 273.902 244.589V233.888C273.902 233.794 273.92 233.702 273.956 233.615C273.992 233.529 274.045 233.45 274.111 233.384C274.177 233.318 274.256 233.265 274.343 233.229C274.43 233.194 274.523 233.175 274.617 233.175H301.446C301.54 233.175 301.633 233.194 301.72 233.229C301.807 233.265 301.885 233.318 301.952 233.384C302.018 233.45 302.071 233.529 302.107 233.615C302.143 233.702 302.161 233.794 302.161 233.888V244.589C302.161 244.683 302.143 244.776 302.107 244.862C302.071 244.949 302.018 245.027 301.952 245.093C301.885 245.16 301.807 245.212 301.72 245.248C301.633 245.284 301.54 245.302 301.446 245.302V245.302ZM275.331 243.876H300.731V234.601H275.331V243.876Z" fill="white"/>
<path d="M337.745 245.302H310.915C310.821 245.302 310.728 245.284 310.642 245.248C310.555 245.212 310.476 245.16 310.41 245.093C310.343 245.027 310.291 244.949 310.255 244.862C310.219 244.776 310.2 244.683 310.2 244.589V233.888C310.2 233.794 310.219 233.702 310.255 233.615C310.291 233.529 310.343 233.45 310.41 233.384C310.476 233.318 310.555 233.265 310.642 233.229C310.728 233.194 310.821 233.175 310.915 233.175H337.745C337.839 233.175 337.932 233.194 338.018 233.229C338.105 233.265 338.184 233.318 338.25 233.384C338.317 233.45 338.37 233.529 338.405 233.615C338.441 233.702 338.46 233.794 338.46 233.888V244.589C338.46 244.683 338.441 244.776 338.405 244.862C338.37 244.949 338.317 245.027 338.25 245.093C338.184 245.16 338.105 245.212 338.018 245.248C337.932 245.284 337.839 245.302 337.745 245.302V245.302ZM311.63 243.876H337.03V234.601H311.63V243.876Z" fill="white"/>
<path d="M336.956 227.992C336.867 227.992 336.778 227.975 336.695 227.942L274.355 203.551C274.268 203.516 274.188 203.465 274.121 203.401C274.053 203.336 273.999 203.258 273.961 203.172C273.924 203.086 273.904 202.994 273.902 202.901C273.9 202.807 273.917 202.714 273.951 202.627C273.986 202.54 274.037 202.46 274.102 202.393C274.167 202.325 274.245 202.271 274.331 202.234C274.417 202.197 274.509 202.176 274.603 202.175C274.697 202.173 274.79 202.19 274.878 202.224L337.217 226.615C337.372 226.676 337.501 226.789 337.582 226.934C337.662 227.079 337.689 227.248 337.658 227.411C337.627 227.575 337.54 227.722 337.412 227.828C337.284 227.934 337.122 227.992 336.956 227.992V227.992Z" fill="white"/>
<path d="M274.617 228.778C274.451 228.778 274.29 228.721 274.161 228.615C274.033 228.51 273.946 228.363 273.914 228.2C273.883 228.038 273.909 227.869 273.989 227.724C274.069 227.578 274.197 227.465 274.351 227.403L337.48 202.225C337.656 202.156 337.852 202.158 338.026 202.233C338.2 202.308 338.337 202.448 338.407 202.623C338.478 202.799 338.475 202.995 338.401 203.168C338.326 203.342 338.186 203.479 338.01 203.549L274.882 228.728C274.798 228.761 274.708 228.778 274.617 228.778V228.778Z" fill="white"/>
<path d="M301.052 244.909C300.962 244.909 300.873 244.892 300.79 244.859L274.749 234.63C274.573 234.561 274.431 234.424 274.356 234.251C274.281 234.078 274.277 233.882 274.347 233.706C274.416 233.53 274.553 233.389 274.727 233.314C274.9 233.238 275.097 233.234 275.273 233.303L301.314 243.533C301.468 243.593 301.597 243.706 301.678 243.851C301.758 243.997 301.785 244.166 301.754 244.329C301.723 244.492 301.636 244.639 301.508 244.745C301.379 244.851 301.218 244.909 301.052 244.909V244.909Z" fill="white"/>
<path d="M275.011 244.909C274.843 244.909 274.68 244.85 274.551 244.742C274.423 244.634 274.336 244.485 274.307 244.32C274.278 244.155 274.308 243.985 274.392 243.84C274.476 243.694 274.609 243.584 274.767 243.526L300.807 234.084C300.896 234.052 300.989 234.037 301.084 234.041C301.178 234.045 301.27 234.067 301.355 234.107C301.441 234.146 301.517 234.202 301.581 234.271C301.645 234.34 301.694 234.421 301.726 234.509C301.758 234.598 301.773 234.691 301.769 234.785C301.764 234.879 301.742 234.971 301.702 235.056C301.662 235.141 301.605 235.217 301.536 235.28C301.466 235.343 301.385 235.392 301.296 235.424L275.255 244.866C275.177 244.894 275.094 244.909 275.011 244.909V244.909Z" fill="white"/>
<path d="M337.35 244.909C337.265 244.909 337.179 244.893 337.099 244.864L311.848 235.422C311.67 235.355 311.527 235.221 311.448 235.049C311.37 234.877 311.363 234.681 311.43 234.504C311.496 234.326 311.631 234.183 311.804 234.105C311.976 234.027 312.173 234.02 312.351 234.087L337.602 243.528C337.759 243.587 337.89 243.699 337.972 243.844C338.055 243.989 338.084 244.159 338.054 244.323C338.024 244.488 337.937 244.636 337.809 244.743C337.68 244.85 337.518 244.909 337.35 244.909V244.909Z" fill="white"/>
<path d="M312.099 244.122C311.93 244.122 311.767 244.062 311.638 243.953C311.509 243.844 311.422 243.693 311.395 243.527C311.367 243.361 311.399 243.19 311.485 243.045C311.572 242.9 311.707 242.79 311.867 242.735L337.118 234.08C337.207 234.049 337.301 234.036 337.395 234.042C337.489 234.047 337.581 234.071 337.665 234.112C337.75 234.153 337.826 234.21 337.888 234.28C337.951 234.351 337.999 234.433 338.029 234.521C338.06 234.61 338.073 234.704 338.067 234.798C338.061 234.891 338.036 234.983 337.995 235.067C337.953 235.151 337.896 235.227 337.825 235.289C337.754 235.35 337.672 235.398 337.583 235.428L312.332 244.083C312.257 244.109 312.178 244.122 312.099 244.122Z" fill="white"/>
<path d="M235.654 188.615C233.533 188.615 231.459 187.988 229.696 186.813C227.932 185.638 226.558 183.968 225.746 182.014C224.935 180.06 224.722 177.91 225.136 175.836C225.55 173.762 226.571 171.856 228.071 170.361C229.571 168.866 231.481 167.847 233.562 167.435C235.642 167.022 237.798 167.234 239.757 168.043C241.717 168.852 243.392 170.223 244.57 171.981C245.748 173.74 246.377 175.807 246.377 177.922C246.374 180.757 245.243 183.475 243.233 185.479C241.223 187.484 238.497 188.612 235.654 188.615V188.615ZM235.654 168.655C233.816 168.655 232.019 169.198 230.49 170.217C228.962 171.235 227.771 172.682 227.067 174.376C226.364 176.069 226.18 177.932 226.538 179.73C226.897 181.527 227.782 183.179 229.082 184.475C230.382 185.771 232.038 186.653 233.841 187.011C235.643 187.369 237.512 187.185 239.21 186.484C240.909 185.782 242.36 184.594 243.381 183.07C244.403 181.546 244.948 179.755 244.948 177.922C244.945 175.465 243.965 173.109 242.222 171.372C240.48 169.635 238.118 168.658 235.654 168.655Z" fill="white"/>
<path d="M306.43 188.615C304.309 188.615 302.236 187.988 300.473 186.813C298.709 185.638 297.335 183.968 296.523 182.014C295.711 180.06 295.499 177.91 295.913 175.836C296.326 173.762 297.348 171.856 298.847 170.361C300.347 168.866 302.258 167.847 304.338 167.435C306.418 167.022 308.575 167.234 310.534 168.043C312.494 168.852 314.168 170.223 315.347 171.981C316.525 173.74 317.154 175.807 317.154 177.922C317.151 180.757 316.02 183.475 314.01 185.479C311.999 187.484 309.273 188.612 306.43 188.615V188.615ZM306.43 168.655C304.592 168.655 302.795 169.198 301.267 170.217C299.739 171.235 298.547 172.682 297.844 174.376C297.14 176.069 296.956 177.932 297.315 179.73C297.674 181.527 298.559 183.179 299.858 184.475C301.158 185.771 302.814 186.653 304.617 187.011C306.42 187.369 308.289 187.185 309.987 186.484C311.685 185.782 313.137 184.594 314.158 183.07C315.179 181.546 315.724 179.755 315.724 177.922C315.721 175.465 314.741 173.11 312.999 171.372C311.257 169.635 308.894 168.658 306.43 168.655V168.655Z" fill="white"/>
<path d="M394.365 188.615C392.244 188.615 390.171 187.988 388.407 186.813C386.644 185.638 385.269 183.968 384.457 182.014C383.646 180.06 383.433 177.91 383.847 175.836C384.261 173.762 385.282 171.856 386.782 170.361C388.282 168.866 390.193 167.847 392.273 167.435C394.353 167.022 396.509 167.234 398.469 168.043C400.428 168.852 402.103 170.223 403.281 171.981C404.46 173.74 405.089 175.807 405.089 177.922C405.085 180.757 403.955 183.475 401.944 185.479C399.934 187.484 397.208 188.612 394.365 188.615V188.615ZM394.365 168.655C392.527 168.655 390.73 169.198 389.201 170.217C387.673 171.235 386.482 172.682 385.778 174.376C385.075 176.069 384.891 177.932 385.25 179.73C385.608 181.527 386.493 183.179 387.793 184.475C389.093 185.771 390.749 186.653 392.552 187.011C394.355 187.369 396.223 187.185 397.921 186.484C399.62 185.782 401.071 184.594 402.092 183.07C403.114 181.546 403.659 179.755 403.659 177.922C403.656 175.465 402.676 173.11 400.933 171.372C399.191 169.635 396.829 168.658 394.365 168.655V168.655Z" fill="white"/>
<path d="M486.493 188.615C484.372 188.615 482.299 187.988 480.535 186.813C478.772 185.638 477.397 183.968 476.586 182.014C475.774 180.06 475.562 177.91 475.976 175.836C476.389 173.762 477.411 171.856 478.91 170.361C480.41 168.866 482.321 167.847 484.401 167.435C486.481 167.022 488.638 167.234 490.597 168.043C492.557 168.852 494.231 170.223 495.41 171.981C496.588 173.74 497.217 175.807 497.217 177.922C497.214 180.757 496.083 183.475 494.073 185.479C492.062 187.484 489.336 188.612 486.493 188.615V188.615ZM486.493 168.655C484.655 168.655 482.858 169.198 481.33 170.217C479.802 171.235 478.61 172.682 477.907 174.376C477.203 176.069 477.019 177.932 477.378 179.73C477.737 181.527 478.622 183.179 479.922 184.475C481.221 185.771 482.877 186.653 484.68 187.011C486.483 187.369 488.352 187.185 490.05 186.484C491.748 185.782 493.2 184.594 494.221 183.07C495.242 181.546 495.787 179.755 495.787 177.922C495.784 175.465 494.804 173.11 493.062 171.372C491.32 169.635 488.957 168.658 486.493 168.655V168.655Z" fill="white"/>
<path d="M304.533 181.222V180.683L305.224 180.014C306.887 178.436 307.638 177.597 307.648 176.619C307.666 176.446 307.644 176.272 307.585 176.108C307.526 175.945 307.431 175.797 307.307 175.676C307.183 175.554 307.034 175.461 306.869 175.405C306.704 175.349 306.529 175.331 306.356 175.351C305.846 175.37 305.358 175.564 304.974 175.9L304.693 175.281C305.211 174.851 305.863 174.618 306.536 174.621C306.795 174.599 307.056 174.631 307.302 174.716C307.547 174.802 307.772 174.938 307.96 175.117C308.149 175.295 308.297 175.512 308.395 175.752C308.493 175.992 308.539 176.25 308.529 176.509C308.529 177.707 307.658 178.676 306.286 179.994L305.765 180.473V180.493H308.69V181.222H304.533Z" fill="white"/>
<path d="M235.416 175.495H235.396L234.265 176.104L234.095 175.435L235.516 174.676H236.268V181.167H235.416V175.495Z" fill="white"/>
<path d="M487.134 181.167V179.4H484.11V178.821L487.014 174.677H487.966V178.711H488.877V179.4H487.966V181.167H487.134ZM487.134 178.711V176.545C487.134 176.205 487.145 175.865 487.165 175.525H487.134C486.935 175.906 486.774 176.185 486.594 176.485L485.001 178.691V178.711L487.134 178.711Z" fill="white"/>
<path d="M393.264 180.159C393.701 180.417 394.198 180.558 394.706 180.568C395.838 180.568 396.189 179.849 396.178 179.31C396.168 178.401 395.347 178.012 394.496 178.012H394.005V177.352H394.496C395.137 177.352 395.948 177.023 395.948 176.254C395.948 175.735 395.617 175.275 394.806 175.275C394.339 175.288 393.887 175.438 393.505 175.705L393.274 175.066C393.781 174.737 394.372 174.564 394.976 174.567C396.258 174.567 396.839 175.325 396.839 176.115C396.832 176.465 396.711 176.804 396.495 177.079C396.278 177.355 395.977 177.552 395.637 177.642V177.662C396.039 177.72 396.407 177.921 396.674 178.227C396.94 178.533 397.088 178.924 397.089 179.33C397.089 180.368 396.278 181.277 394.716 181.277C394.123 181.285 393.538 181.133 393.024 180.837L393.264 180.159Z" fill="white"/>
<path d="M427.824 244.589H364.696C364.602 244.589 364.509 244.571 364.422 244.535C364.336 244.499 364.257 244.447 364.19 244.381C364.124 244.314 364.071 244.236 364.035 244.149C363.999 244.063 363.981 243.97 363.981 243.876V203.6C363.981 203.506 363.999 203.414 364.035 203.327C364.071 203.241 364.124 203.162 364.19 203.096C364.257 203.03 364.336 202.977 364.422 202.941C364.509 202.906 364.602 202.887 364.696 202.887H427.824C427.918 202.887 428.011 202.906 428.098 202.941C428.185 202.977 428.263 203.03 428.33 203.096C428.396 203.162 428.449 203.241 428.485 203.327C428.521 203.414 428.539 203.506 428.539 203.6V243.876C428.539 243.97 428.521 244.063 428.485 244.149C428.449 244.236 428.396 244.314 428.33 244.381C428.263 244.447 428.185 244.499 428.098 244.535C428.011 244.571 427.918 244.589 427.824 244.589V244.589ZM365.411 243.164H427.109V204.313H365.411V243.164Z" fill="white"/>
<path d="M416.527 211.798H377.922C377.732 211.798 377.55 211.723 377.416 211.589C377.282 211.455 377.207 211.274 377.207 211.085C377.207 210.896 377.282 210.715 377.416 210.581C377.55 210.447 377.732 210.372 377.922 210.372H416.527C416.717 210.372 416.899 210.447 417.033 210.581C417.167 210.715 417.242 210.896 417.242 211.085C417.242 211.274 417.167 211.455 417.033 211.589C416.899 211.723 416.717 211.798 416.527 211.798V211.798Z" fill="white"/>
<path d="M416.527 218.214H377.922C377.828 218.214 377.735 218.196 377.648 218.16C377.561 218.124 377.482 218.072 377.415 218.005C377.349 217.939 377.296 217.861 377.26 217.774C377.224 217.687 377.205 217.595 377.205 217.501C377.205 217.407 377.224 217.314 377.26 217.228C377.296 217.141 377.349 217.062 377.415 216.996C377.482 216.93 377.561 216.877 377.648 216.842C377.735 216.806 377.828 216.788 377.922 216.788H416.527C416.717 216.788 416.899 216.863 417.033 216.997C417.167 217.13 417.242 217.312 417.242 217.501C417.242 217.69 417.167 217.871 417.033 218.005C416.899 218.139 416.717 218.214 416.527 218.214V218.214Z" fill="white"/>
<path d="M416.527 224.629H377.922C377.732 224.629 377.55 224.554 377.416 224.42C377.282 224.287 377.207 224.105 377.207 223.916C377.207 223.727 377.282 223.546 377.416 223.412C377.55 223.279 377.732 223.204 377.922 223.204H416.527C416.717 223.204 416.899 223.279 417.033 223.412C417.167 223.546 417.242 223.727 417.242 223.916C417.242 224.105 417.167 224.287 417.033 224.42C416.899 224.554 416.717 224.629 416.527 224.629V224.629Z" fill="white"/>
<path d="M416.527 231.045H377.922C377.828 231.045 377.735 231.027 377.648 230.991C377.561 230.956 377.482 230.903 377.415 230.837C377.349 230.771 377.296 230.692 377.26 230.605C377.224 230.519 377.205 230.426 377.205 230.332C377.205 230.238 377.224 230.146 377.26 230.059C377.296 229.972 377.349 229.894 377.415 229.827C377.482 229.761 377.561 229.709 377.648 229.673C377.735 229.637 377.828 229.619 377.922 229.619H416.527C416.717 229.619 416.899 229.694 417.033 229.828C417.167 229.962 417.242 230.143 417.242 230.332C417.242 230.521 417.167 230.703 417.033 230.836C416.899 230.97 416.717 231.045 416.527 231.045V231.045Z" fill="white"/>
<path d="M416.527 237.461H377.922C377.732 237.461 377.55 237.386 377.416 237.252C377.282 237.118 377.207 236.937 377.207 236.748C377.207 236.559 377.282 236.377 377.416 236.244C377.55 236.11 377.732 236.035 377.922 236.035H416.527C416.621 236.035 416.714 236.053 416.801 236.089C416.888 236.124 416.967 236.177 417.034 236.243C417.101 236.309 417.153 236.388 417.189 236.475C417.225 236.561 417.244 236.654 417.244 236.748C417.244 236.842 417.225 236.934 417.189 237.021C417.153 237.108 417.101 237.186 417.034 237.253C416.967 237.319 416.888 237.371 416.801 237.407C416.714 237.443 416.621 237.461 416.527 237.461Z" fill="white"/>
<path d="M220.888 204.867C221.079 204.86 221.259 204.78 221.391 204.644C221.523 204.507 221.597 204.325 221.597 204.135C221.597 203.945 221.523 203.762 221.391 203.626C221.259 203.489 221.079 203.409 220.888 203.403C220.698 203.409 220.517 203.489 220.385 203.626C220.253 203.762 220.179 203.945 220.179 204.135C220.179 204.325 220.253 204.507 220.385 204.644C220.517 204.78 220.698 204.86 220.888 204.867V204.867Z" fill="white"/>
<path d="M220.888 212.708C221.079 212.702 221.259 212.622 221.391 212.485C221.523 212.349 221.597 212.166 221.597 211.976C221.597 211.786 221.523 211.604 221.391 211.467C221.259 211.331 221.079 211.251 220.888 211.244C220.698 211.251 220.517 211.331 220.385 211.467C220.253 211.604 220.179 211.786 220.179 211.976C220.179 212.166 220.253 212.349 220.385 212.485C220.517 212.622 220.698 212.702 220.888 212.708V212.708Z" fill="white"/>
<path d="M220.888 220.55C221.079 220.543 221.259 220.463 221.391 220.327C221.523 220.19 221.597 220.008 221.597 219.818C221.597 219.628 221.523 219.445 221.391 219.309C221.259 219.172 221.079 219.092 220.888 219.085C220.698 219.092 220.517 219.172 220.385 219.309C220.253 219.445 220.179 219.628 220.179 219.818C220.179 220.008 220.253 220.19 220.385 220.327C220.517 220.463 220.698 220.543 220.888 220.55V220.55Z" fill="white"/>
<path d="M220.888 228.391C221.079 228.385 221.259 228.305 221.391 228.168C221.523 228.031 221.597 227.849 221.597 227.659C221.597 227.469 221.523 227.287 221.391 227.15C221.259 227.013 221.079 226.933 220.888 226.927C220.698 226.933 220.517 227.013 220.385 227.15C220.253 227.287 220.179 227.469 220.179 227.659C220.179 227.849 220.253 228.031 220.385 228.168C220.517 228.305 220.698 228.385 220.888 228.391V228.391Z" fill="white"/>
<path d="M220.888 236.233C221.079 236.226 221.259 236.146 221.391 236.009C221.523 235.873 221.597 235.69 221.597 235.5C221.597 235.311 221.523 235.128 221.391 234.991C221.259 234.855 221.079 234.775 220.888 234.768C220.698 234.775 220.517 234.855 220.385 234.991C220.253 235.128 220.179 235.311 220.179 235.5C220.179 235.69 220.253 235.873 220.385 236.009C220.517 236.146 220.698 236.226 220.888 236.233V236.233Z" fill="white"/>
<path d="M220.888 244.074C221.079 244.067 221.259 243.987 221.391 243.851C221.523 243.714 221.597 243.532 221.597 243.342C221.597 243.152 221.523 242.969 221.391 242.833C221.259 242.696 221.079 242.616 220.888 242.61C220.698 242.616 220.517 242.696 220.385 242.833C220.253 242.969 220.179 243.152 220.179 243.342C220.179 243.532 220.253 243.714 220.385 243.851C220.517 243.987 220.698 244.067 220.888 244.074V244.074Z" fill="white"/>
<path d="M250.667 204.848H227.79C227.6 204.848 227.418 204.772 227.284 204.639C227.15 204.505 227.075 204.324 227.075 204.135C227.075 203.946 227.15 203.764 227.284 203.631C227.418 203.497 227.6 203.422 227.79 203.422H250.667C250.856 203.422 251.038 203.497 251.172 203.631C251.306 203.764 251.382 203.946 251.382 204.135C251.382 204.324 251.306 204.505 251.172 204.639C251.038 204.772 250.856 204.848 250.667 204.848H250.667Z" fill="white"/>
<path d="M250.667 212.689H227.79C227.696 212.689 227.602 212.671 227.515 212.635C227.428 212.6 227.349 212.547 227.283 212.481C227.216 212.415 227.163 212.336 227.127 212.249C227.091 212.163 227.073 212.07 227.073 211.976C227.073 211.882 227.091 211.789 227.127 211.703C227.163 211.616 227.216 211.538 227.283 211.471C227.349 211.405 227.428 211.353 227.515 211.317C227.602 211.281 227.696 211.263 227.79 211.263H250.667C250.761 211.263 250.854 211.281 250.941 211.317C251.028 211.353 251.107 211.405 251.174 211.471C251.24 211.538 251.293 211.616 251.329 211.703C251.365 211.789 251.384 211.882 251.384 211.976C251.384 212.07 251.365 212.163 251.329 212.249C251.293 212.336 251.24 212.415 251.174 212.481C251.107 212.547 251.028 212.6 250.941 212.635C250.854 212.671 250.761 212.689 250.667 212.689H250.667Z" fill="white"/>
<path d="M250.667 220.53H227.79C227.6 220.53 227.418 220.455 227.284 220.322C227.15 220.188 227.075 220.007 227.075 219.817C227.075 219.628 227.15 219.447 227.284 219.313C227.418 219.18 227.6 219.105 227.79 219.105H250.667C250.761 219.104 250.854 219.123 250.941 219.158C251.028 219.194 251.107 219.247 251.174 219.313C251.24 219.379 251.293 219.458 251.329 219.544C251.365 219.631 251.384 219.724 251.384 219.817C251.384 219.911 251.365 220.004 251.329 220.091C251.293 220.177 251.24 220.256 251.174 220.322C251.107 220.388 251.028 220.441 250.941 220.477C250.854 220.512 250.761 220.531 250.667 220.53H250.667Z" fill="white"/>
<path d="M250.667 228.372H227.79C227.6 228.372 227.418 228.297 227.284 228.163C227.15 228.029 227.075 227.848 227.075 227.659C227.075 227.47 227.15 227.289 227.284 227.155C227.418 227.021 227.6 226.946 227.79 226.946H250.667C250.761 226.946 250.854 226.964 250.941 227C251.028 227.035 251.107 227.088 251.174 227.154C251.24 227.22 251.293 227.299 251.329 227.386C251.365 227.472 251.384 227.565 251.384 227.659C251.384 227.753 251.365 227.846 251.329 227.932C251.293 228.019 251.24 228.097 251.174 228.164C251.107 228.23 251.028 228.282 250.941 228.318C250.854 228.354 250.761 228.372 250.667 228.372H250.667Z" fill="white"/>
<path d="M250.667 236.213H227.79C227.6 236.213 227.418 236.138 227.284 236.004C227.15 235.871 227.075 235.689 227.075 235.5C227.075 235.311 227.15 235.13 227.284 234.996C227.418 234.863 227.6 234.787 227.79 234.787H250.667C250.761 234.787 250.854 234.806 250.941 234.841C251.028 234.877 251.107 234.929 251.174 234.996C251.24 235.062 251.293 235.141 251.329 235.227C251.365 235.314 251.384 235.407 251.384 235.5C251.384 235.594 251.365 235.687 251.329 235.774C251.293 235.86 251.24 235.939 251.174 236.005C251.107 236.071 251.028 236.124 250.941 236.159C250.854 236.195 250.761 236.213 250.667 236.213H250.667Z" fill="white"/>
<path d="M250.667 244.055H227.79C227.696 244.055 227.602 244.037 227.515 244.001C227.428 243.965 227.349 243.913 227.283 243.847C227.216 243.78 227.163 243.702 227.127 243.615C227.091 243.528 227.073 243.436 227.073 243.342C227.073 243.248 227.091 243.155 227.127 243.069C227.163 242.982 227.216 242.903 227.283 242.837C227.349 242.771 227.428 242.718 227.515 242.683C227.602 242.647 227.696 242.629 227.79 242.629H250.667C250.761 242.629 250.854 242.647 250.941 242.683C251.028 242.718 251.107 242.771 251.174 242.837C251.24 242.903 251.293 242.982 251.329 243.069C251.365 243.155 251.384 243.248 251.384 243.342C251.384 243.436 251.365 243.528 251.329 243.615C251.293 243.702 251.24 243.78 251.174 243.847C251.107 243.913 251.028 243.965 250.941 244.001C250.854 244.037 250.761 244.055 250.667 244.055H250.667Z" fill="white"/>
<path d="M494.188 247.31H478.799C477.781 247.309 476.805 246.905 476.085 246.187C475.365 245.47 474.96 244.497 474.959 243.482V203.994C474.96 202.979 475.365 202.006 476.085 201.289C476.805 200.571 477.781 200.168 478.799 200.167H480.666C480.783 200.167 480.898 200.195 481.001 200.25C481.105 200.305 481.193 200.384 481.259 200.481C481.324 200.577 481.365 200.689 481.377 200.805C481.389 200.921 481.373 201.038 481.329 201.146C481.281 201.263 481.263 201.389 481.276 201.514C481.288 201.64 481.332 201.76 481.402 201.865C481.472 201.969 481.567 202.055 481.679 202.114C481.79 202.174 481.914 202.205 482.04 202.206H490.814C490.94 202.205 491.065 202.174 491.176 202.115C491.287 202.056 491.382 201.97 491.453 201.866C491.523 201.761 491.567 201.641 491.58 201.516C491.593 201.391 491.575 201.265 491.527 201.148C491.483 201.04 491.466 200.923 491.478 200.806C491.49 200.69 491.53 200.579 491.596 200.482C491.661 200.385 491.749 200.305 491.853 200.25C491.956 200.195 492.072 200.167 492.189 200.167H494.188C495.206 200.168 496.182 200.571 496.902 201.289C497.622 202.006 498.026 202.979 498.028 203.994V243.482C498.026 244.497 497.622 245.47 496.902 246.187C496.182 246.905 495.206 247.309 494.188 247.31ZM478.799 201.592C478.16 201.593 477.548 201.846 477.096 202.296C476.644 202.747 476.39 203.357 476.389 203.994V243.482C476.39 244.119 476.644 244.729 477.096 245.18C477.548 245.63 478.16 245.883 478.799 245.884H494.188C494.827 245.883 495.44 245.63 495.891 245.18C496.343 244.729 496.597 244.119 496.598 243.482V203.994C496.597 203.357 496.343 202.747 495.891 202.296C495.439 201.846 494.827 201.593 494.188 201.592H493.008C492.968 202.146 492.72 202.663 492.313 203.042C491.906 203.42 491.371 203.631 490.814 203.631H482.04C481.484 203.631 480.949 203.42 480.542 203.042C480.135 202.663 479.887 202.146 479.848 201.592H478.799Z" fill="white"/>
<path d="M463.712 224.629H443.694C443.504 224.629 443.323 224.554 443.188 224.42C443.054 224.287 442.979 224.105 442.979 223.916C442.979 223.727 443.054 223.546 443.188 223.412C443.323 223.279 443.504 223.204 443.694 223.204H461.986L457.844 219.074C457.71 218.94 457.635 218.759 457.635 218.57C457.635 218.381 457.71 218.2 457.844 218.066C457.978 217.932 458.16 217.857 458.35 217.857C458.539 217.857 458.721 217.932 458.855 218.066L464.217 223.412C464.317 223.512 464.385 223.639 464.413 223.777C464.44 223.916 464.426 224.059 464.372 224.189C464.318 224.319 464.226 224.431 464.109 224.509C463.991 224.587 463.853 224.629 463.712 224.629V224.629Z" fill="white"/>
<path d="M458.707 229.619C458.566 229.619 458.428 229.577 458.31 229.499C458.193 229.421 458.101 229.309 458.047 229.179C457.993 229.049 457.979 228.906 458.006 228.767C458.034 228.629 458.102 228.502 458.202 228.402L463.206 223.412C463.34 223.279 463.522 223.204 463.712 223.204C463.901 223.204 464.083 223.279 464.217 223.412C464.351 223.546 464.427 223.727 464.427 223.916C464.427 224.105 464.351 224.287 464.217 224.42L459.213 229.41C459.146 229.477 459.068 229.529 458.981 229.565C458.894 229.601 458.801 229.619 458.707 229.619Z" fill="white"/>
<path d="M498.955 284.628H475.58C473.985 275.433 473.985 266.034 475.58 256.839H498.955C496.322 265.916 496.322 275.551 498.955 284.628V284.628Z" fill="#00B0FF"/>
<path d="M369.172 279.851H392.546C394.142 270.656 394.142 261.256 392.546 252.061H369.172C371.805 261.138 371.805 270.773 369.172 279.851V279.851Z" fill="#B721FF"/>
<path d="M404.745 287.666H428.12C429.715 278.471 429.715 269.071 428.12 259.876H404.745C407.378 268.954 407.378 278.589 404.745 287.666V287.666Z" fill="#B721FF"/>
<path d="M388.858 260.157H374.634C374.389 260.157 374.19 259.839 374.19 259.445C374.19 259.051 374.389 258.732 374.634 258.732H388.858C389.104 258.732 389.303 259.051 389.303 259.445C389.303 259.839 389.104 260.157 388.858 260.157Z" fill="white"/>
<path d="M388.858 266.771H374.634C374.389 266.771 374.19 266.452 374.19 266.058C374.19 265.664 374.389 265.345 374.634 265.345H388.858C389.104 265.345 389.303 265.664 389.303 266.058C389.303 266.452 389.104 266.771 388.858 266.771Z" fill="white"/>
<path d="M424.431 270.979H410.207C409.962 270.979 409.763 270.66 409.763 270.266C409.763 269.872 409.962 269.553 410.207 269.553H424.431C424.677 269.553 424.876 269.872 424.876 270.266C424.876 270.66 424.677 270.979 424.431 270.979Z" fill="white"/>
<path d="M424.431 277.592H410.207C409.962 277.592 409.763 277.273 409.763 276.879C409.763 276.485 409.962 276.166 410.207 276.166H424.431C424.677 276.166 424.876 276.485 424.876 276.879C424.876 277.273 424.677 277.592 424.431 277.592Z" fill="white"/>
<path d="M493.769 264.366H479.544C479.299 264.366 479.1 264.047 479.1 263.653C479.1 263.259 479.299 262.94 479.544 262.94H493.769C494.014 262.94 494.213 263.259 494.213 263.653C494.213 264.047 494.014 264.366 493.769 264.366Z" fill="white"/>
<path d="M493.769 270.979H479.544C479.299 270.979 479.1 270.66 479.1 270.266C479.1 269.872 479.299 269.553 479.544 269.553H493.769C494.014 269.553 494.213 269.872 494.213 270.266C494.213 270.66 494.014 270.979 493.769 270.979Z" fill="white"/>
<path d="M388.858 273.384H374.634C374.389 273.384 374.19 273.065 374.19 272.671C374.19 272.277 374.389 271.958 374.634 271.958H388.858C389.104 271.958 389.303 272.277 389.303 272.671C389.303 273.065 389.104 273.384 388.858 273.384Z" fill="white"/>
<path d="M251.6 280.452H274.975C276.57 271.257 276.57 261.857 274.975 252.662H251.6C254.233 261.739 254.233 271.375 251.6 280.452V280.452Z" fill="#B721FF"/>
<path d="M271.287 260.759H257.063C256.817 260.759 256.618 260.44 256.618 260.046C256.618 259.652 256.817 259.333 257.063 259.333H271.287C271.532 259.333 271.731 259.652 271.731 260.046C271.731 260.44 271.532 260.759 271.287 260.759Z" fill="white"/>
<path d="M271.287 267.372H257.063C256.817 267.372 256.618 267.053 256.618 266.659C256.618 266.265 256.817 265.946 257.063 265.946H271.287C271.532 265.946 271.731 266.265 271.731 266.659C271.731 267.053 271.532 267.372 271.287 267.372Z" fill="white"/>
<path d="M271.287 273.985H257.063C256.817 273.985 256.618 273.666 256.618 273.272C256.618 272.878 256.817 272.559 257.063 272.559H271.287C271.532 272.559 271.731 272.878 271.731 273.272C271.731 273.666 271.532 273.985 271.287 273.985Z" fill="white"/>
<path d="M184.536 324.381H207.911C209.506 315.187 209.506 305.787 207.911 296.592H184.536C187.169 305.669 187.169 315.304 184.536 324.381V324.381Z" fill="#B721FF"/>
<path d="M204.223 304.688H189.999C189.753 304.688 189.554 304.369 189.554 303.975C189.554 303.581 189.753 303.263 189.999 303.263H204.223C204.468 303.263 204.667 303.581 204.667 303.975C204.667 304.369 204.468 304.688 204.223 304.688Z" fill="white"/>
<path d="M204.223 311.301H189.999C189.753 311.301 189.554 310.983 189.554 310.589C189.554 310.195 189.753 309.876 189.999 309.876H204.223C204.468 309.876 204.667 310.195 204.667 310.589C204.667 310.983 204.468 311.301 204.223 311.301Z" fill="white"/>
<path d="M204.223 317.915H189.999C189.753 317.915 189.554 317.596 189.554 317.202C189.554 316.808 189.753 316.489 189.999 316.489H204.223C204.468 316.489 204.667 316.808 204.667 317.202C204.667 317.596 204.468 317.915 204.223 317.915Z" fill="white"/>
<path d="M507.908 272.683C507.908 272.683 493.546 283.935 500.727 286.492C507.908 289.049 512.524 277.286 512.524 277.286L507.908 272.683Z" fill="#592F2A"/>
<path d="M508.421 268.592L505.343 273.706C505.343 273.706 510.472 273.706 511.498 281.378L515.602 276.263L508.421 268.592Z" fill="#CFCCE0"/>
<path d="M576.639 385.2L577.151 400.542L570.996 404.123L568.432 402.588L568.945 385.2H576.639Z" fill="#592F2A"/>
<path d="M540.222 381.108L541.247 397.474L526.886 403.611L527.912 394.917C527.912 394.917 532.015 388.268 530.989 381.108H540.222Z" fill="#592F2A"/>
<path d="M562.277 257.852C562.277 257.852 570.483 279.332 572.022 292.629C573.561 305.927 576.126 341.216 576.126 341.216L581.255 386.734L566.893 388.779L560.738 342.75L546.889 297.232L543.812 342.75L541.247 384.176L527.912 384.688L526.886 341.727L521.244 287.004L524.321 260.92L562.277 257.852Z" fill="#2F2E41"/>
<path d="M569.97 401.565C569.97 401.565 570.812 392.976 577.059 397.782L578.177 396.962L583.306 408.214C583.306 408.214 589.461 416.908 578.69 417.931C567.919 418.954 568.945 408.214 568.945 408.214L567.919 403.611L568.432 400.597L569.97 401.565Z" fill="#2F2E41"/>
<path d="M540.222 391.337C541.484 392.056 542.53 393.1 543.252 394.359C543.973 395.618 544.344 397.047 544.325 398.497C544.325 403.611 543.812 404.123 543.812 404.123L536.118 406.168C536.118 406.168 530.989 405.657 527.912 408.725C524.834 411.794 509.447 413.84 509.447 409.748C509.447 405.657 522.27 399.008 522.27 399.008C522.27 399.008 526.078 392.596 528.79 393.245C531.502 393.894 532.528 394.917 532.528 395.428C532.528 395.94 530.989 399.52 530.989 399.52C530.989 399.52 539.709 397.474 540.222 391.337Z" fill="#2F2E41"/>
<path d="M539.196 194.945C546.277 194.945 552.018 189.221 552.018 182.159C552.018 175.098 546.277 169.373 539.196 169.373C532.114 169.373 526.373 175.098 526.373 182.159C526.373 189.221 532.114 194.945 539.196 194.945Z" fill="#592F2A"/>
<path d="M548.685 185.483L554.327 198.269L538.939 220.261C538.939 220.261 537.913 196.224 534.836 192.132C531.758 188.041 548.685 185.483 548.685 185.483Z" fill="#592F2A"/>
<path d="M541.504 212.078L544.068 205.429L546.12 205.941L548.685 203.895L552.275 192.644L557.404 196.224L564.072 263.222L522.526 264.245L528.168 217.704L533.297 204.406L536.999 199.526L539.452 206.964L541.504 212.078Z" fill="#CFCCE0"/>
<path d="M553.301 240.719L554.87 194.455C554.87 194.455 557.917 194.689 558.943 196.224C559.969 197.758 576.895 200.826 576.895 200.826L573.817 248.39C573.817 248.39 586.64 286.236 582.024 288.282C577.408 290.328 569.201 289.816 569.201 289.816L553.301 240.719Z" fill="#575A89"/>
<path d="M528.424 234.837L533.866 203.657L521.757 211.822L524.834 234.326L522.27 249.669C522.27 249.669 512.524 292.118 515.602 293.652C518.679 295.187 522.27 293.652 522.27 293.652L528.424 250.692V234.837Z" fill="#575A89"/>
<path d="M525.347 210.799L521.757 211.822L520.218 232.28L517.653 250.18L505.343 272.172C505.343 272.172 511.498 268.08 514.063 279.843L527.62 256.309L525.347 210.799Z" fill="#575A89"/>
<path d="M565.354 268.592C565.354 268.592 550.993 279.843 558.173 282.401C565.354 284.958 569.97 273.195 569.97 273.195L565.354 268.592Z" fill="#592F2A"/>
<path d="M574.074 274.218L569.457 279.843L563.303 269.103L565.867 264.5L574.074 274.218Z" fill="#CFCCE0"/>
<path d="M573.048 202.616L577.151 200.571C577.151 200.571 580.229 204.662 580.742 208.242C581.255 211.822 583.819 216.425 583.819 218.982C583.819 221.54 591 245.577 591 245.577L574.587 278.821C574.587 278.821 570.996 266.546 563.303 265.523L576.126 247.623L568.945 234.837L573.048 202.616Z" fill="#575A89"/>
<path d="M549.93 169.977L552.348 169.012C552.348 169.012 547.293 163.461 540.258 163.944L542.237 161.772C542.237 161.772 537.401 159.842 533.004 164.909C530.693 167.573 528.019 170.704 526.352 174.232H523.762L524.843 176.605L521.06 178.978L524.943 178.551C524.712 179.851 524.676 181.177 524.838 182.487C525.004 183.798 525.675 184.992 526.708 185.819V185.819C526.708 185.819 529.707 179.629 529.707 178.664V181.077C529.707 181.077 532.125 178.905 532.125 177.458L533.444 179.147L534.103 176.492L542.237 179.147L540.918 176.975L545.974 177.699L543.995 175.044C543.995 175.044 549.711 178.181 549.93 180.836C550.15 183.49 551.823 186.006 551.823 186.006C551.823 186.006 556.305 173.597 549.93 169.977Z" fill="#2F2E41"/>
<path d="M549.71 181.903C550.504 181.903 551.147 181.102 551.147 180.113C551.147 179.125 550.504 178.323 549.71 178.323C548.917 178.323 548.274 179.125 548.274 180.113C548.274 181.102 548.917 181.903 549.71 181.903Z" fill="#592F2A"/>
</g>
<defs>
<clipPath id="clip0">
<rect x="115" y="143" width="476" height="275" fill="white"/>
</clipPath>
</defs>
</svg>
