<svg width="719" height="769" viewBox="0 0 719 769" fill="none" xmlns="http://www.w3.org/2000/svg">
<path fill-rule="evenodd" clip-rule="evenodd" d="M456.186 71.1087L441.861 50.6176C395.246 -4.16044 307.544 -16.3269 233.844 25.4199C169.069 62.1116 134.449 129.495 142.655 191.555C15.4238 266.027 -36.0945 415.953 27.6102 528.416C73.5639 609.543 167.042 649.245 264.107 638.516C253.032 665.729 253.405 695.812 267.844 721.302C294.943 769.141 361.312 782.78 416.072 751.761C430.376 743.659 442.464 733.322 452.048 721.628C500.631 750.747 567.923 751.563 626.401 718.437C700.101 676.691 734.759 595.213 711.744 527.067L701.535 504.245L580.091 289.849L576.913 285.91L456.186 71.1087Z" fill="#00B0FF" fill-opacity="0.08"/>
<path d="M368.462 523.692C377.638 523.692 385.077 515.943 385.077 506.385C385.077 496.826 377.638 489.077 368.462 489.077C359.285 489.077 351.846 496.826 351.846 506.385C351.846 515.943 359.285 523.692 368.462 523.692Z" fill="#2F2E41"/>
<path d="M373.38 490.239C376.312 490.24 379.194 491.006 381.743 492.463C384.293 493.92 386.423 496.018 387.926 498.552C389.429 501.086 390.253 503.969 390.317 506.919C390.382 509.87 389.684 512.787 388.293 515.385C389.762 513.535 390.832 511.397 391.435 509.109C392.037 506.82 392.16 504.429 391.794 502.09C391.428 499.751 390.583 497.514 389.311 495.522C388.039 493.53 386.368 491.827 384.406 490.521C382.444 489.215 380.233 488.334 377.914 487.936C375.595 487.537 373.219 487.629 370.937 488.206C368.656 488.783 366.519 489.831 364.662 491.286C362.805 492.74 361.27 494.567 360.154 496.652C361.737 494.65 363.749 493.035 366.039 491.924C368.329 490.814 370.838 490.238 373.38 490.239V490.239Z" fill="#2F2E41"/>
<path d="M335.923 507.077C363.835 507.077 386.462 484.45 386.462 456.538C386.462 428.627 363.835 406 335.923 406C308.011 406 285.385 428.627 285.385 456.538C285.385 484.45 308.011 507.077 335.923 507.077Z" fill="#2F2E41"/>
<path d="M296.638 425.059C305.395 415.352 317.637 409.378 330.78 408.399C343.922 407.419 356.937 411.509 367.077 419.807C366.661 419.417 366.25 419.025 365.818 418.647C355.743 409.824 342.524 405.306 329.07 406.087C315.615 406.868 303.026 412.883 294.071 422.81C285.116 432.738 280.529 445.764 281.318 459.024C282.107 472.284 288.208 484.692 298.279 493.519C298.711 493.898 299.155 494.254 299.596 494.615C290.047 485.663 284.4 473.404 283.848 460.427C283.296 447.449 287.882 434.768 296.638 425.059V425.059Z" fill="#2F2E41"/>
<path d="M335.923 505.692C353.894 505.692 368.462 491.124 368.462 473.154C368.462 455.183 353.894 440.615 335.923 440.615C317.953 440.615 303.385 455.183 303.385 473.154C303.385 491.124 317.953 505.692 335.923 505.692Z" fill="#C58C85"/>
<path d="M312.241 483.538C312.241 483.538 316.597 522.967 309.627 527.253C302.658 531.538 349.7 537.538 349.7 537.538C349.7 537.538 342.731 494.681 360.154 483.538H312.241Z" fill="#C58C85"/>
<path d="M354.236 520.657C354.236 520.657 367.077 514.704 348.583 516.824C330.088 518.944 314.131 510.812 314.131 510.812C314.131 510.812 308.527 505.248 307.665 511.24C306.803 517.232 310.252 528.361 291.279 530.073C272.306 531.785 255.058 526.649 248.158 539.489C241.259 552.329 244.709 607.97 244.709 607.97C244.709 607.97 257.645 654.195 267.994 661.043C278.343 667.891 368.897 658.475 368.897 658.475L394.769 612.25V558.321C394.769 558.321 391.32 539.489 367.172 544.625C367.172 544.625 351.648 541.201 352.511 533.497C353.373 525.793 354.236 520.657 354.236 520.657Z" fill="#D0CDE1"/>
<path d="M272.165 694.586C272.695 692.24 273.049 690.914 273.049 690.914L272.775 689.006L269.955 669.521L268.769 661.303C279.038 656.949 281.608 636.917 281.608 636.917L281.995 636.681L283.748 635.614V635.609L290.04 631.769L290.167 631.692L292.708 633.413L297.871 636.917C315.934 650.431 334.328 650.191 345.679 648.062C352.618 646.76 356.931 644.755 356.931 644.755L369.382 640.531L369.77 640.401L370.152 640.459L377.455 641.583L377.587 641.607L378.192 641.699L376.501 653.594L374.049 670.882C380.525 674.371 386.283 680.926 391.319 689.006C392.433 690.793 393.514 692.653 394.559 694.586C395.919 697.085 397.218 699.685 398.456 702.347C398.607 702.665 398.754 702.987 398.9 703.309C399.377 704.352 399.849 705.404 400.308 706.462H269.898C270.068 705.399 270.238 704.385 270.404 703.41C270.412 703.376 270.418 703.343 270.422 703.309C270.484 702.982 270.541 702.665 270.593 702.347C271.169 699.175 271.726 696.527 272.165 694.586Z" fill="#2F2E41"/>
<path d="M266 528.765C266 528.765 275.335 546.038 271.94 567.63C268.546 589.222 282.124 642.769 282.124 642.769L292.308 640.178C292.308 640.178 285.519 595.267 287.216 584.903C288.913 574.539 288.913 533.947 280.427 528.765C271.94 523.583 266 528.765 266 528.765Z" fill="#2F2E41"/>
<path d="M365.698 546.702L369.29 642.593L376.126 646.923C376.126 646.923 385.953 541.692 380.826 541.692H370.394C369.756 541.692 369.125 541.824 368.539 542.079C367.953 542.334 367.425 542.707 366.985 543.175C366.546 543.644 366.206 544.198 365.984 544.805C365.763 545.411 365.666 546.056 365.698 546.702V546.702Z" fill="#2F2E41"/>
<path d="M287.462 640C290.138 640 292.308 638.14 292.308 635.846C292.308 633.552 290.138 631.692 287.462 631.692C284.785 631.692 282.615 633.552 282.615 635.846C282.615 638.14 284.785 640 287.462 640Z" fill="url(#paint0_linear)"/>
<path d="M373.308 644.154C375.984 644.154 378.154 642.294 378.154 640C378.154 637.706 375.984 635.846 373.308 635.846C370.631 635.846 368.462 637.706 368.462 640C368.462 642.294 370.631 644.154 373.308 644.154Z" fill="url(#paint1_linear)"/>
<path d="M307.538 432.308V465.538H315.108L324.741 455.045L323.451 465.538H356.91L354.846 455.045L358.975 465.538H364.308V432.308H307.538Z" fill="#2F2E41"/>
<path d="M302.692 471.077C303.839 471.077 304.769 468.907 304.769 466.231C304.769 463.554 303.839 461.385 302.692 461.385C301.545 461.385 300.615 463.554 300.615 466.231C300.615 468.907 301.545 471.077 302.692 471.077Z" fill="#C58C85"/>
<path d="M368.462 471.077C369.991 471.077 371.231 468.907 371.231 466.231C371.231 463.554 369.991 461.385 368.462 461.385C366.932 461.385 365.692 463.554 365.692 466.231C365.692 468.907 366.932 471.077 368.462 471.077Z" fill="#C58C85"/>
<path d="M386.15 640.559C386.15 640.559 347.57 633.673 345.026 645.825C342.482 657.977 387.846 652.711 387.846 652.711L386.15 640.559Z" fill="#C58C85"/>
<path d="M385.544 551.385C385.544 551.385 479.056 626.312 461.898 644.398C444.74 662.484 379.538 657.317 379.538 657.317L383.828 635.786L421.576 631.48L402.702 612.532L385.544 614.255V551.385Z" fill="#D0CDE1"/>
<path d="M248 675.495L259.638 684.889C259.638 684.889 267.951 711.363 280.42 703.677C292.889 695.991 268.782 668.663 268.782 668.663L254.65 663.538L248 675.495Z" fill="#C58C85"/>
<path d="M259.077 537.538L247.19 541.14C247.19 541.14 164.573 602.681 161.167 619.824C157.761 636.967 177.343 646.396 177.343 646.396L251.414 681.538L259.077 660.967L224.17 642.967C224.17 642.967 226.724 637.824 216.507 636.967C206.291 636.11 204.588 624.967 204.588 624.967C204.588 624.967 225.021 593.253 236.089 600.11C247.157 606.967 250.563 612.11 250.563 612.11L259.077 537.538Z" fill="#D0CDE1"/>
<path d="M430.769 697.541V700.318C430.771 701.08 430.625 701.835 430.338 702.546C430.211 702.862 430.057 703.168 429.878 703.46C429.314 704.376 428.512 705.133 427.553 705.66C426.594 706.186 425.509 706.462 424.406 706.462H212.825C211.722 706.462 210.637 706.186 209.678 705.66C208.718 705.133 207.917 704.376 207.352 703.46C207.174 703.168 207.02 702.862 206.893 702.546C206.606 701.835 206.46 701.08 206.462 700.318V697.541C206.461 696.734 206.626 695.935 206.945 695.189C207.265 694.444 207.734 693.767 208.325 693.196C208.916 692.625 209.617 692.173 210.389 691.864C211.162 691.556 211.989 691.397 212.825 691.397H225.021V690.102C225.021 690.069 225.028 690.035 225.041 690.004C225.054 689.973 225.074 689.945 225.098 689.921C225.123 689.897 225.152 689.878 225.185 689.866C225.217 689.853 225.251 689.846 225.286 689.846H231.649C231.684 689.846 231.719 689.853 231.751 689.866C231.783 689.878 231.813 689.897 231.837 689.921C231.862 689.945 231.881 689.973 231.895 690.004C231.908 690.035 231.915 690.069 231.915 690.102V691.397H235.89V690.102C235.89 690.069 235.897 690.035 235.91 690.004C235.923 689.973 235.943 689.945 235.968 689.921C235.992 689.897 236.022 689.878 236.054 689.866C236.086 689.853 236.121 689.846 236.155 689.846H242.519C242.554 689.846 242.588 689.853 242.62 689.866C242.653 689.878 242.682 689.897 242.706 689.921C242.731 689.945 242.751 689.973 242.764 690.004C242.777 690.035 242.784 690.069 242.784 690.102V691.397H246.764V690.102C246.764 690.069 246.771 690.035 246.784 690.004C246.797 689.973 246.817 689.945 246.842 689.921C246.866 689.897 246.896 689.878 246.928 689.866C246.96 689.853 246.995 689.846 247.029 689.846H253.393C253.428 689.846 253.462 689.853 253.494 689.866C253.527 689.878 253.556 689.897 253.58 689.921C253.605 689.945 253.625 689.973 253.638 690.004C253.651 690.035 253.658 690.069 253.658 690.102V691.397H257.633V690.102C257.633 690.069 257.64 690.035 257.653 690.004C257.667 689.973 257.686 689.945 257.711 689.921C257.736 689.897 257.765 689.878 257.797 689.866C257.829 689.853 257.864 689.846 257.899 689.846H264.262C264.297 689.846 264.331 689.853 264.364 689.866C264.396 689.878 264.425 689.897 264.45 689.921C264.474 689.945 264.494 689.973 264.507 690.004C264.521 690.035 264.527 690.069 264.527 690.102V691.397H268.503V690.102C268.503 690.069 268.509 690.035 268.523 690.004C268.536 689.973 268.556 689.945 268.58 689.921C268.605 689.897 268.634 689.878 268.666 689.866C268.699 689.853 268.733 689.846 268.768 689.846H275.131C275.166 689.846 275.201 689.853 275.233 689.866C275.265 689.878 275.294 689.897 275.319 689.921C275.344 689.945 275.363 689.973 275.376 690.004C275.39 690.035 275.397 690.069 275.397 690.102V691.397H279.377V690.102C279.377 690.069 279.383 690.035 279.397 690.004C279.41 689.973 279.43 689.945 279.454 689.921C279.479 689.897 279.508 689.878 279.54 689.866C279.573 689.853 279.607 689.846 279.642 689.846H286.005C286.04 689.846 286.075 689.853 286.107 689.866C286.139 689.878 286.168 689.897 286.193 689.921C286.218 689.945 286.237 689.973 286.25 690.004C286.264 690.035 286.271 690.069 286.271 690.102V691.397H290.246V690.102C290.246 690.069 290.253 690.035 290.266 690.004C290.279 689.973 290.299 689.945 290.323 689.921C290.348 689.897 290.377 689.878 290.41 689.866C290.442 689.853 290.476 689.846 290.511 689.846H340.356C340.391 689.846 340.426 689.853 340.458 689.866C340.49 689.878 340.519 689.897 340.544 689.921C340.569 689.945 340.588 689.973 340.602 690.004C340.615 690.035 340.622 690.069 340.622 690.102V691.397H344.602V690.102C344.602 690.069 344.608 690.035 344.622 690.004C344.635 689.973 344.655 689.945 344.679 689.921C344.704 689.897 344.733 689.878 344.765 689.866C344.798 689.853 344.832 689.846 344.867 689.846H351.23C351.3 689.847 351.368 689.874 351.417 689.922C351.467 689.97 351.495 690.035 351.496 690.102V691.397H355.471V690.102C355.471 690.069 355.478 690.035 355.491 690.004C355.504 689.973 355.524 689.945 355.548 689.921C355.573 689.897 355.602 689.878 355.635 689.866C355.667 689.853 355.701 689.846 355.736 689.846H362.1C362.134 689.846 362.169 689.853 362.201 689.866C362.233 689.878 362.263 689.897 362.287 689.921C362.312 689.945 362.331 689.973 362.345 690.004C362.358 690.035 362.365 690.069 362.365 690.102V691.397H366.34V690.102C366.34 690.069 366.347 690.035 366.36 690.004C366.374 689.973 366.393 689.945 366.418 689.921C366.442 689.897 366.472 689.878 366.504 689.866C366.536 689.853 366.571 689.846 366.606 689.846H372.969C373.004 689.846 373.038 689.853 373.07 689.866C373.103 689.878 373.132 689.897 373.157 689.921C373.181 689.945 373.201 689.973 373.214 690.004C373.227 690.035 373.234 690.069 373.234 690.102V691.397H377.214V690.102C377.214 690.069 377.221 690.035 377.234 690.004C377.248 689.973 377.267 689.945 377.292 689.921C377.316 689.897 377.346 689.878 377.378 689.866C377.41 689.853 377.445 689.846 377.48 689.846H383.843C383.912 689.847 383.979 689.874 384.028 689.922C384.077 689.97 384.104 690.035 384.103 690.102V691.397H388.083V690.102C388.083 690.069 388.09 690.035 388.104 690.004C388.117 689.973 388.136 689.945 388.161 689.921C388.186 689.897 388.215 689.878 388.247 689.866C388.279 689.853 388.314 689.846 388.349 689.846H394.712C394.747 689.846 394.781 689.853 394.814 689.866C394.846 689.878 394.875 689.897 394.9 689.921C394.924 689.945 394.944 689.973 394.957 690.004C394.971 690.035 394.977 690.069 394.977 690.102V691.397H398.953V690.102C398.953 690.069 398.959 690.035 398.973 690.004C398.986 689.973 399.006 689.945 399.03 689.921C399.055 689.897 399.084 689.878 399.116 689.866C399.149 689.853 399.183 689.846 399.218 689.846H405.581C405.616 689.846 405.651 689.853 405.683 689.866C405.715 689.878 405.744 689.897 405.769 689.921C405.794 689.945 405.813 689.973 405.827 690.004C405.84 690.035 405.847 690.069 405.847 690.102V691.397H424.406C425.242 691.397 426.069 691.556 426.841 691.864C427.613 692.173 428.315 692.625 428.906 693.196C429.497 693.767 429.966 694.444 430.285 695.189C430.605 695.935 430.769 696.734 430.769 697.541V697.541Z" fill="#3F3D56"/>
<path d="M491.692 702.308H145.538V703.692H491.692V702.308Z" fill="#3F3D56"/>
<path d="M412.998 576.532H334.498V574.923H298.903V576.532H220.079C218.671 576.532 217.32 577.089 216.324 578.079C215.329 579.069 214.769 580.413 214.769 581.813V688.719C214.769 690.12 215.329 691.463 216.324 692.453C217.32 693.444 218.671 694 220.079 694H412.998C414.406 694 415.757 693.444 416.752 692.453C417.748 691.463 418.308 690.12 418.308 688.719V581.813C418.308 581.12 418.17 580.433 417.904 579.792C417.637 579.152 417.246 578.569 416.752 578.079C416.259 577.589 415.674 577.2 415.03 576.934C414.386 576.669 413.695 576.532 412.998 576.532V576.532Z" fill="#3F3D56"/>
<path d="M316.538 626.154C323.038 626.154 328.308 620.885 328.308 614.385C328.308 607.885 323.038 602.615 316.538 602.615C310.038 602.615 304.769 607.885 304.769 614.385C304.769 620.885 310.038 626.154 316.538 626.154Z" stroke="#D0CDE1" stroke-width="2" stroke-miterlimit="10"/>
<path d="M312.385 630.308C318.885 630.308 324.154 625.038 324.154 618.538C324.154 612.038 318.885 606.769 312.385 606.769C305.885 606.769 300.615 612.038 300.615 618.538C300.615 625.038 305.885 630.308 312.385 630.308Z" fill="#D0CDE1"/>
<path d="M170.462 718.923H80.4615V720.308H170.462V718.923Z" fill="#3F3D56"/>
<path d="M560.923 718.923H470.923V720.308H560.923V718.923Z" fill="#3F3D56"/>
<path d="M132.762 684.605C123.496 699.899 126.684 718.923 126.684 718.923C126.684 718.923 144.895 713.151 154.161 697.857C163.428 682.563 160.24 663.538 160.24 663.538C160.24 663.538 142.028 669.311 132.762 684.605Z" fill="#3F3D56"/>
<path d="M126.141 718.923L125.604 718.838C125.41 718.807 106.091 715.612 94.5202 701.794C82.9497 687.976 83.2281 668.43 83.2319 668.235L83.2434 667.692L83.7802 667.777C83.9743 667.808 103.294 671.003 114.864 684.822C126.435 698.64 126.157 718.185 126.153 718.381L126.141 718.923Z" fill="url(#paint2_linear)"/>
<path d="M126.925 720.308L126.408 720.146C126.222 720.087 107.667 714.127 98.2877 698.815C88.9089 683.503 92.0298 664.264 92.0621 664.072L92.1524 663.538L92.6685 663.7C92.8551 663.759 111.41 669.719 120.789 685.032C130.168 700.343 127.047 719.582 127.015 719.775L126.925 720.308ZM92.9136 664.78C92.4865 668.009 90.7839 684.757 99.0923 698.322C107.401 711.887 123.094 717.979 126.163 719.066C126.59 715.837 128.293 699.089 119.985 685.525C111.676 671.96 95.9834 665.867 92.9136 664.78H92.9136Z" fill="#3F3D56"/>
<path d="M126.846 669.077C132.581 669.077 137.231 664.428 137.231 658.692C137.231 652.957 132.581 648.308 126.846 648.308C121.111 648.308 116.462 652.957 116.462 658.692C116.462 664.428 121.111 669.077 126.846 669.077Z" fill="#3F3D56"/>
<path d="M257.019 527.846L197.28 467.866H169.077V466.923H197.675L197.814 467.063L257.692 527.183L257.019 527.846Z" fill="#3F3D56"/>
<path d="M398.212 525.077L457.951 465.097H486.154V464.154H457.555L457.417 464.294L397.538 524.414L398.212 525.077Z" fill="#3F3D56"/>
<path d="M137.231 437.846H68V451.692H137.231V437.846Z" fill="#D0CDE1"/>
<path d="M137.231 458.615H68V472.462H137.231V458.615Z" fill="#D0CDE1"/>
<path d="M137.231 479.385H68V493.231H137.231V479.385Z" fill="#D0CDE1"/>
<path opacity="0.15" d="M127.343 455.113H99.8462V468.26H127.343V455.113Z" fill="black"/>
<path opacity="0.15" d="M108.748 475.286H99.8462V488.433H108.748V475.286Z" fill="black"/>
<path opacity="0.15" d="M115.077 479.385H68V493.231H115.077V479.385Z" fill="black"/>
<path d="M590 440.615H520.769V447.538H590V440.615Z" fill="#D0CDE1"/>
<path d="M508.308 440.615H494.462V453.077H508.308V440.615Z" fill="url(#paint3_linear)"/>
<path d="M508.308 460H494.462V473.846H508.308V460Z" fill="url(#paint4_linear)"/>
<path d="M508.308 480.769H494.462V494.615H508.308V480.769Z" fill="url(#paint5_linear)"/>
<path d="M512.462 450.308H497.231V436.462H512.462V450.308ZM498.215 449.413H511.477V437.356H498.215V449.413Z" fill="#3F3D56"/>
<path d="M590 461.385H520.769V466.923H590V461.385Z" fill="#D0CDE1"/>
<path d="M512.462 471.077H497.231V457.231H512.462V471.077ZM498.215 470.182H511.477V458.125H498.215V470.182Z" fill="#3F3D56"/>
<path d="M590 482.154H520.769V487.692H590V482.154Z" fill="#D0CDE1"/>
<path d="M512.462 491.846H497.231V478H512.462V491.846ZM498.215 490.952H511.477V478.895H498.215V490.952Z" fill="#3F3D56"/>
<path d="M157.308 451.692C161.514 451.692 164.923 448.283 164.923 444.077C164.923 439.871 161.514 436.462 157.308 436.462C153.102 436.462 149.692 439.871 149.692 444.077C149.692 448.283 153.102 451.692 157.308 451.692Z" fill="url(#paint6_linear)"/>
<path d="M157.308 475.231C161.514 475.231 164.923 471.821 164.923 467.615C164.923 463.41 161.514 460 157.308 460C153.102 460 149.692 463.41 149.692 467.615C149.692 471.821 153.102 475.231 157.308 475.231Z" fill="url(#paint7_linear)"/>
<path d="M157.308 496C161.514 496 164.923 492.59 164.923 488.385C164.923 484.179 161.514 480.769 157.308 480.769C153.102 480.769 149.692 484.179 149.692 488.385C149.692 492.59 153.102 496 157.308 496Z" fill="url(#paint8_linear)"/>
<path d="M153.846 450.308C152.203 450.308 150.597 449.861 149.231 449.024C147.864 448.187 146.8 446.998 146.171 445.607C145.542 444.215 145.378 442.684 145.698 441.207C146.019 439.729 146.81 438.372 147.972 437.307C149.134 436.242 150.614 435.517 152.225 435.223C153.837 434.929 155.507 435.08 157.025 435.657C158.543 436.233 159.841 437.209 160.754 438.461C161.667 439.714 162.154 441.186 162.154 442.692C162.151 444.711 161.275 446.647 159.718 448.075C158.16 449.502 156.049 450.305 153.846 450.308V450.308ZM153.846 435.973C152.396 435.973 150.979 436.367 149.774 437.105C148.568 437.844 147.629 438.893 147.074 440.121C146.519 441.349 146.374 442.7 146.657 444.003C146.94 445.307 147.638 446.504 148.663 447.444C149.688 448.383 150.994 449.023 152.416 449.283C153.838 449.542 155.312 449.409 156.651 448.9C157.991 448.392 159.136 447.53 159.941 446.425C160.747 445.32 161.176 444.021 161.176 442.692C161.174 440.911 160.401 439.203 159.027 437.943C157.653 436.683 155.79 435.975 153.846 435.973V435.973Z" fill="#3F3D56"/>
<path d="M153.846 473.846C152.203 473.846 150.597 473.359 149.231 472.446C147.864 471.533 146.8 470.236 146.171 468.718C145.542 467.2 145.378 465.529 145.698 463.918C146.019 462.306 146.81 460.826 147.972 459.664C149.134 458.502 150.614 457.711 152.225 457.39C153.837 457.07 155.507 457.234 157.025 457.863C158.543 458.492 159.841 459.557 160.754 460.923C161.667 462.289 162.154 463.895 162.154 465.538C162.151 467.741 161.275 469.853 159.718 471.41C158.16 472.968 156.049 473.844 153.846 473.846V473.846ZM153.846 458.208C152.396 458.208 150.979 458.638 149.774 459.444C148.568 460.249 147.629 461.394 147.074 462.733C146.519 464.073 146.374 465.547 146.657 466.969C146.94 468.39 147.638 469.697 148.663 470.722C149.688 471.747 150.994 472.445 152.416 472.728C153.838 473.011 155.312 472.866 156.651 472.311C157.991 471.756 159.136 470.816 159.941 469.611C160.747 468.406 161.176 466.988 161.176 465.538C161.174 463.595 160.401 461.732 159.027 460.358C157.653 458.983 155.79 458.21 153.846 458.208Z" fill="#3F3D56"/>
<path d="M153.846 493.231C152.203 493.231 150.597 492.784 149.231 491.947C147.864 491.111 146.8 489.921 146.171 488.53C145.542 487.138 145.378 485.607 145.698 484.13C146.019 482.652 146.81 481.296 147.972 480.23C149.134 479.165 150.614 478.44 152.225 478.146C153.837 477.852 155.507 478.003 157.025 478.58C158.543 479.156 159.841 480.132 160.754 481.385C161.667 482.637 162.154 484.109 162.154 485.615C162.151 487.634 161.275 489.57 159.718 490.998C158.16 492.425 156.049 493.229 153.846 493.231V493.231ZM153.846 478.896C152.396 478.896 150.979 479.29 149.774 480.028C148.568 480.767 147.629 481.816 147.074 483.044C146.519 484.272 146.374 485.623 146.657 486.926C146.94 488.23 147.638 489.427 148.663 490.367C149.688 491.306 150.994 491.946 152.416 492.206C153.838 492.465 155.312 492.332 156.651 491.823C157.991 491.315 159.136 490.454 159.941 489.349C160.747 488.244 161.176 486.944 161.176 485.615C161.174 483.834 160.401 482.126 159.027 480.866C157.653 479.607 155.79 478.898 153.846 478.896V478.896Z" fill="#3F3D56"/>
<path d="M535.952 687.077H535.018V680.304C535.018 679.945 535.166 679.601 535.429 679.347C535.691 679.093 536.047 678.95 536.419 678.95H538.753C538.877 678.95 538.996 678.902 539.083 678.817C539.171 678.733 539.22 678.618 539.22 678.498V673.983C539.22 673.864 539.171 673.749 539.083 673.664C538.996 673.579 538.877 673.532 538.753 673.532H536.419C536.047 673.531 535.691 673.389 535.429 673.135C535.166 672.881 535.018 672.536 535.018 672.177V669.92C535.018 669.8 534.969 669.685 534.881 669.601C534.794 669.516 534.675 669.468 534.551 669.468H530.349C529.977 669.468 529.621 669.325 529.359 669.071C529.096 668.817 528.949 668.473 528.948 668.114V667.662C528.948 667.542 528.899 667.428 528.811 667.343C528.724 667.258 528.605 667.211 528.481 667.211H511.673C511.549 667.211 511.43 667.258 511.343 667.343C511.255 667.428 511.206 667.542 511.206 667.662V668.114C511.205 668.473 511.058 668.817 510.795 669.071C510.532 669.325 510.176 669.468 509.805 669.468H505.603C505.479 669.468 505.36 669.516 505.273 669.601C505.185 669.685 505.136 669.8 505.136 669.92V672.177C505.136 672.536 504.988 672.881 504.725 673.135C504.463 673.389 504.107 673.531 503.735 673.532H501.401C501.277 673.532 501.158 673.579 501.071 673.664C500.983 673.749 500.934 673.864 500.934 673.983V678.498C500.934 678.618 500.983 678.733 501.071 678.817C501.158 678.902 501.277 678.95 501.401 678.95H504.202C504.574 678.95 504.93 679.093 505.192 679.347C505.455 679.601 505.602 679.945 505.603 680.304V687.077H504.669V680.304C504.669 680.185 504.62 680.07 504.532 679.985C504.445 679.901 504.326 679.853 504.202 679.853H501.401C501.029 679.852 500.673 679.71 500.411 679.456C500.148 679.202 500 678.857 500 678.498V673.983C500 673.624 500.148 673.28 500.411 673.026C500.673 672.772 501.029 672.629 501.401 672.629H503.735C503.859 672.629 503.978 672.581 504.065 672.496C504.153 672.412 504.202 672.297 504.202 672.177V669.92C504.203 669.561 504.35 669.216 504.613 668.962C504.875 668.708 505.231 668.566 505.603 668.565H509.805C509.929 668.565 510.048 668.518 510.135 668.433C510.223 668.348 510.272 668.233 510.272 668.114V667.662C510.272 667.303 510.42 666.959 510.683 666.705C510.945 666.451 511.301 666.308 511.673 666.308H528.481C528.853 666.308 529.209 666.451 529.471 666.705C529.734 666.959 529.882 667.303 529.882 667.662V668.114C529.882 668.233 529.931 668.348 530.019 668.433C530.106 668.518 530.225 668.565 530.349 668.565H534.551C534.922 668.566 535.278 668.708 535.541 668.962C535.804 669.216 535.951 669.561 535.952 669.92V672.177C535.952 672.297 536.001 672.412 536.089 672.496C536.176 672.581 536.295 672.629 536.419 672.629H538.753C539.125 672.629 539.481 672.772 539.743 673.026C540.006 673.28 540.153 673.624 540.154 673.983V678.498C540.153 678.857 540.006 679.202 539.743 679.456C539.481 679.71 539.125 679.852 538.753 679.853H536.419C536.295 679.853 536.176 679.901 536.089 679.985C536.001 680.07 535.952 680.185 535.952 680.304V687.077Z" fill="#3F3D56"/>
<path d="M534.574 720.308H505.58C505.202 720.307 504.839 720.155 504.572 719.884C504.305 719.613 504.154 719.246 504.154 718.863V698.154H505.104V718.863C505.105 718.991 505.155 719.113 505.244 719.203C505.333 719.294 505.454 719.344 505.58 719.344H534.574C534.7 719.344 534.821 719.294 534.91 719.203C534.999 719.113 535.049 718.991 535.049 718.863V698.154H536V718.863C536 719.246 535.849 719.613 535.582 719.884C535.315 720.155 534.952 720.307 534.574 720.308V720.308Z" fill="#3F3D56"/>
<path d="M540.592 691.231H505.1C504.578 691.231 504.154 691.644 504.154 692.154V701.385C504.154 701.894 504.578 702.308 505.1 702.308H540.592C541.115 702.308 541.538 701.894 541.538 701.385V692.154C541.538 691.644 541.115 691.231 540.592 691.231Z" fill="url(#paint9_linear)"/>
<path d="M538.718 699.538H502.821C502.44 699.538 502.075 699.386 501.806 699.117C501.536 698.847 501.385 698.482 501.385 698.101V688.515C501.385 688.134 501.536 687.768 501.806 687.499C502.075 687.229 502.44 687.077 502.821 687.077H538.718C539.099 687.077 539.464 687.229 539.733 687.499C540.002 687.768 540.153 688.134 540.154 688.515V698.101C540.153 698.482 540.002 698.847 539.733 699.117C539.464 699.386 539.099 699.538 538.718 699.538ZM502.821 688.035C502.694 688.036 502.572 688.086 502.482 688.176C502.392 688.266 502.342 688.388 502.342 688.515V698.101C502.342 698.228 502.392 698.35 502.482 698.439C502.572 698.529 502.694 698.58 502.821 698.58H538.718C538.845 698.58 538.967 698.529 539.056 698.439C539.146 698.35 539.196 698.228 539.197 698.101V688.515C539.196 688.388 539.146 688.266 539.056 688.176C538.967 688.086 538.845 688.036 538.718 688.035H502.821Z" fill="#3F3D56"/>
<path d="M519.385 662.154C517.952 653.594 517.574 644.92 518.256 636.288L519.385 622C513.166 632.978 514.571 647.427 519.385 662.154V662.154Z" fill="#D0CDE1"/>
<path d="M523.538 664.923C523.061 659.892 522.935 654.819 523.162 649.76L523.538 641.385C521.465 647.82 521.934 656.29 523.538 664.923Z" fill="#D0CDE1"/>
<defs>
<linearGradient id="paint0_linear" x1="287.462" y1="631.692" x2="287.462" y2="640" gradientUnits="userSpaceOnUse">
<stop stop-color="#21D4FD"/>
<stop offset="1" stop-color="#B721FF"/>
</linearGradient>
<linearGradient id="paint1_linear" x1="373.308" y1="635.846" x2="373.308" y2="644.154" gradientUnits="userSpaceOnUse">
<stop stop-color="#21D4FD"/>
<stop offset="1" stop-color="#B721FF"/>
</linearGradient>
<linearGradient id="paint2_linear" x1="104.692" y1="667.692" x2="104.692" y2="718.923" gradientUnits="userSpaceOnUse">
<stop stop-color="#21D4FD"/>
<stop offset="1" stop-color="#B721FF"/>
</linearGradient>
<linearGradient id="paint3_linear" x1="501.385" y1="440.615" x2="501.385" y2="453.077" gradientUnits="userSpaceOnUse">
<stop stop-color="#21D4FD"/>
<stop offset="1" stop-color="#B721FF"/>
</linearGradient>
<linearGradient id="paint4_linear" x1="501.385" y1="460" x2="501.385" y2="473.846" gradientUnits="userSpaceOnUse">
<stop stop-color="#21D4FD"/>
<stop offset="1" stop-color="#B721FF"/>
</linearGradient>
<linearGradient id="paint5_linear" x1="501.385" y1="480.769" x2="501.385" y2="494.615" gradientUnits="userSpaceOnUse">
<stop stop-color="#21D4FD"/>
<stop offset="1" stop-color="#B721FF"/>
</linearGradient>
<linearGradient id="paint6_linear" x1="157.308" y1="436.462" x2="157.308" y2="451.692" gradientUnits="userSpaceOnUse">
<stop stop-color="#21D4FD"/>
<stop offset="1" stop-color="#B721FF"/>
</linearGradient>
<linearGradient id="paint7_linear" x1="157.308" y1="460" x2="157.308" y2="475.231" gradientUnits="userSpaceOnUse">
<stop stop-color="#21D4FD"/>
<stop offset="1" stop-color="#B721FF"/>
</linearGradient>
<linearGradient id="paint8_linear" x1="157.308" y1="480.769" x2="157.308" y2="496" gradientUnits="userSpaceOnUse">
<stop stop-color="#21D4FD"/>
<stop offset="1" stop-color="#B721FF"/>
</linearGradient>
<linearGradient id="paint9_linear" x1="522.846" y1="691.231" x2="522.846" y2="702.308" gradientUnits="userSpaceOnUse">
<stop stop-color="#21D4FD"/>
<stop offset="1" stop-color="#B721FF"/>
</linearGradient>
</defs>
</svg>
