<svg width="60" height="60" viewBox="0 0 60 60" fill="none" xmlns="http://www.w3.org/2000/svg">
<path fill-rule="evenodd" clip-rule="evenodd" d="M21.8831 43.8232V25.5243H16.2274V43.8232H21.8831ZM21.8831 19.0382C21.8494 17.4007 20.758 16.1538 18.9851 16.1538C17.2116 16.1538 16.0529 17.4007 16.0529 19.0382C16.0529 20.6402 17.1779 21.9231 18.9172 21.9231H18.9509C20.758 21.9231 21.8831 20.6402 21.8831 19.0382ZM31.11 43.8232V33.3974C31.11 32.8394 31.1504 32.2814 31.3144 31.8837C31.763 30.7683 32.784 29.6137 34.4982 29.6137C36.7439 29.6137 38.1523 30.8882 38.1523 33.3974V43.8232H43.8462V33.1184C43.8462 27.384 40.785 24.7157 36.7019 24.7157C33.3541 24.7157 31.8846 26.5874 31.0686 27.8613L31.1095 25.4139H25.4255C25.5072 27.1657 25.4255 43.8232 25.4255 43.8232H31.11Z" fill="url(#paint0_linear)" fill-opacity="0.8"/>
<defs>
<linearGradient id="paint0_linear" x1="29.9495" y1="16.1538" x2="29.9495" y2="43.8232" gradientUnits="userSpaceOnUse">
<stop stop-color="#21D4FD"/>
<stop offset="1" stop-color="#B721FF"/>
</linearGradient>
</defs>
</svg>
