<svg width="228" height="107" viewBox="0 0 228 107" fill="none" xmlns="http://www.w3.org/2000/svg">
<path d="M0.608 61.528L61.376 24.808V45.256L28.688 65.704L61.376 85.288V106.888L0.608 70.888V61.528ZM141.677 27.544C141.005 26.872 139.757 25.96 137.933 24.808C136.205 23.656 134.045 22.552 131.453 21.496C128.957 20.344 126.221 19.384 123.245 18.616C120.269 17.848 117.245 17.464 114.173 17.464C108.701 17.464 104.621 18.472 101.933 20.488C99.2454 22.504 97.9014 25.336 97.9014 28.984C97.9014 31.096 98.3814 32.872 99.3414 34.312C100.397 35.656 101.885 36.856 103.805 37.912C105.725 38.968 108.125 39.928 111.005 40.792C113.981 41.656 117.389 42.568 121.229 43.528C126.221 44.872 130.733 46.312 134.765 47.848C138.893 49.384 142.349 51.304 145.133 53.608C148.013 55.912 150.221 58.696 151.757 61.96C153.293 65.128 154.061 69.064 154.061 73.768C154.061 79.24 153.005 83.944 150.893 87.88C148.877 91.72 146.093 94.84 142.541 97.24C139.085 99.64 135.053 101.416 130.445 102.568C125.933 103.624 121.181 104.152 116.189 104.152C108.509 104.152 100.925 103 93.4374 100.696C85.9494 98.392 79.2294 95.128 73.2774 90.904L82.0614 73.768C82.9254 74.632 84.4614 75.784 86.6694 77.224C88.9734 78.568 91.6614 79.96 94.7334 81.4C97.8054 82.744 101.213 83.896 104.957 84.856C108.701 85.816 112.541 86.296 116.477 86.296C127.421 86.296 132.893 82.792 132.893 75.784C132.893 73.576 132.269 71.704 131.021 70.168C129.773 68.632 127.997 67.288 125.693 66.136C123.389 64.984 120.605 63.928 117.341 62.968C114.077 62.008 110.429 60.952 106.397 59.8C101.501 58.456 97.2294 57.016 93.5814 55.48C90.0294 53.848 87.0534 51.976 84.6534 49.864C82.2534 47.656 80.4294 45.16 79.1814 42.376C78.0294 39.496 77.4534 36.088 77.4534 32.152C77.4534 26.968 78.4134 22.36 80.3334 18.328C82.2534 14.296 84.8934 10.936 88.2534 8.24799C91.7094 5.55999 95.6934 3.54399 100.205 2.19999C104.717 0.759995 109.565 0.0399952 114.749 0.0399952C121.949 0.0399952 128.573 1.19199 134.621 3.49599C140.669 5.70399 145.949 8.34399 150.461 11.416L141.677 27.544ZM227.974 70.888L167.206 106.888V85.288L199.894 65.704L167.206 45.256V24.808L227.974 61.528V70.888Z" fill="url(#paint0_linear)"/>
<defs>
<linearGradient id="paint0_linear" x1="10.1869" y1="58.8967" x2="189.611" y2="-81.792" gradientUnits="userSpaceOnUse">
<stop stop-color="#21D4FD"/>
<stop offset="1" stop-color="#B721FF"/>
</linearGradient>
</defs>
</svg>
